# xmcd
# 
# Track frame offsets:
#     150
#     22215
#     47852
#     78872
#     111605
#     153630
#     192242
#     224667
#     257292
#     275637
# 
# Disc length: 3906
# 
# Revision: 7
# Processed by: cddbd v1.5.2PL0 Copyright (c) Steve Scherf et al.
# Submitted via: Hanso Converter v1.2.0
# 
DISCID=960f400a
DTITLE=British and American - Book 1
DYEAR=2004
DGENRE=Educacional
TTITLE0=Basic Vocabulary - Basic Dialogue - The Alphabet. The Verb "To Be
TTITLE1=Plural Rules - Numbers
TTITLE2=In the Office - Days of Week - Months of the Year - Possessive Adjectives
TTITLE3=House and School - There Is - There Are - Where - Colors
TTITLE4=The Present Continuous Tense
TTITLE5=Questions Words: Where, What, When, Why, Who - Time
TTITLE6=The Simple Present Tense - Routines
TTITLE7=The Present Continuous Tense and The Simple Present Tense
TTITLE8=The Family Tree
TTITLE9=Can To Express Abilities (Sports, Pratical, Artistic)
EXTD=YEAR: 2004
EXTT0=
EXTT1=
EXTT2=
EXTT3=
EXTT4=
EXTT5=
EXTT6=
EXTT7=
EXTT8=
EXTT9=
PLAYORDER=
